<svg xmlns="http://www.w3.org/2000/svg" xmlns:xlink="http://www.w3.org/1999/xlink" viewBox="0 0 234 195"><defs><rect id="b" width="45.511" height="18.455" x=".591" y="98.069" rx="9.228"/><filter id="a" width="183.5%" height="305.9%" x="-41.7%" y="-75.9%" filterUnits="objectBoundingBox"><feOffset dy="5" in="SourceAlpha" result="shadowOffsetOuter1"/><feGaussianBlur in="shadowOffsetOuter1" result="shadowBlurOuter1" stdDeviation="5.5"/><feColorMatrix in="shadowBlurOuter1" values="0 0 0 0 0.152941 0 0 0 0 0.180392 0 0 0 0 0.25098 0 0 0 0.2 0"/></filter><rect id="d" width="45.511" height="18.455" x="163.591" y="80.069" rx="9.228"/><filter id="c" width="183.5%" height="305.9%" x="-41.7%" y="-75.9%" filterUnits="objectBoundingBox"><feOffset dy="5" in="SourceAlpha" result="shadowOffsetOuter1"/><feGaussianBlur in="shadowOffsetOuter1" result="shadowBlurOuter1" stdDeviation="5.5"/><feColorMatrix in="shadowBlurOuter1" values="0 0 0 0 0.152941 0 0 0 0 0.180392 0 0 0 0 0.25098 0 0 0 0.2 0"/></filter><linearGradient id="g" x1="35.192%" x2="146.327%" y1="42%" y2="77.674%"><stop offset="0%" stop-color="#392DD1"/><stop offset="100%" stop-color="#FF4343"/></linearGradient><rect id="f" width="70" height="28" x="128.591" y="145.069" rx="14"/><filter id="e" width="154.3%" height="235.7%" x="-27.1%" y="-50%" filterUnits="objectBoundingBox"><feOffset dy="5" in="SourceAlpha" result="shadowOffsetOuter1"/><feGaussianBlur in="shadowOffsetOuter1" result="shadowBlurOuter1" stdDeviation="5.5"/><feColorMatrix in="shadowBlurOuter1" values="0 0 0 0 0.152941 0 0 0 0 0.180392 0 0 0 0 0.25098 0 0 0 0.2 0"/></filter><ellipse id="i" cx="14.058" cy="11.534" rx="8.467" ry="8.466"/><filter id="h" width="324.4%" height="324.4%" x="-112.2%" y="-82.7%" filterUnits="objectBoundingBox"><feOffset dy="5" in="SourceAlpha" result="shadowOffsetOuter1"/><feGaussianBlur in="shadowOffsetOuter1" result="shadowBlurOuter1" stdDeviation="5.5"/><feColorMatrix in="shadowBlurOuter1" values="0 0 0 0 0.152941 0 0 0 0 0.180392 0 0 0 0 0.25098 0 0 0 0.2 0"/></filter><ellipse id="k" cx="202.175" cy="46.651" rx="10.584" ry="10.582"/><filter id="j" width="279.5%" height="279.6%" x="-89.8%" y="-66.2%" filterUnits="objectBoundingBox"><feOffset dy="5" in="SourceAlpha" result="shadowOffsetOuter1"/><feGaussianBlur in="shadowOffsetOuter1" result="shadowBlurOuter1" stdDeviation="5.5"/><feColorMatrix in="shadowBlurOuter1" values="0 0 0 0 0.152941 0 0 0 0 0.180392 0 0 0 0 0.25098 0 0 0 0.2 0"/></filter><rect id="m" width="150.168" height="134.032" x="27.212" y="22.582" rx="4.072"/><filter id="l" width="125.3%" height="128.4%" x="-12.7%" y="-10.4%" filterUnits="objectBoundingBox"><feOffset dy="5" in="SourceAlpha" result="shadowOffsetOuter1"/><feGaussianBlur in="shadowOffsetOuter1" result="shadowBlurOuter1" stdDeviation="5.5"/><feColorMatrix in="shadowBlurOuter1" values="0 0 0 0 0.152941176 0 0 0 0 0.180392157 0 0 0 0 0.250980392 0 0 0 0.2 0"/></filter><linearGradient id="p" x1="0%" y1="50.706%" y2="50.706%"><stop offset="0%" stop-color="#FB542B"/><stop offset="100%" stop-color="#E3380E"/></linearGradient><circle id="o" cx="30.591" cy="159.069" r="13"/><filter id="n" width="246.2%" height="246.2%" x="-73.1%" y="-53.8%" filterUnits="objectBoundingBox"><feOffset dy="5" in="SourceAlpha" result="shadowOffsetOuter1"/><feGaussianBlur in="shadowOffsetOuter1" result="shadowBlurOuter1" stdDeviation="5.5"/><feColorMatrix in="shadowBlurOuter1" values="0 0 0 0 0.152941 0 0 0 0 0.180392 0 0 0 0 0.25098 0 0 0 0.2 0"/></filter><linearGradient id="s" x1="0%" y1="50.706%" y2="50.706%"><stop offset="0%" stop-color="#FB542B"/><stop offset="100%" stop-color="#E3380E"/></linearGradient><ellipse id="r" cx="85.409" cy="13.884" rx="13.818" ry="13.815"/><filter id="q" width="237.5%" height="237.5%" x="-68.8%" y="-50.7%" filterUnits="objectBoundingBox"><feOffset dy="5" in="SourceAlpha" result="shadowOffsetOuter1"/><feGaussianBlur in="shadowOffsetOuter1" result="shadowBlurOuter1" stdDeviation="5.5"/><feColorMatrix in="shadowBlurOuter1" values="0 0 0 0 0.152941 0 0 0 0 0.180392 0 0 0 0 0.25098 0 0 0 0.2 0"/></filter><linearGradient id="v" x1="35.192%" x2="146.327%" y1="38.443%" y2="89.979%"><stop offset="0%" stop-color="#392DD1"/><stop offset="100%" stop-color="#FF4343"/></linearGradient><rect id="u" width="52" height="25" x=".591" y="47.069" rx="12.5"/><filter id="t" width="173.1%" height="252%" x="-36.5%" y="-56%" filterUnits="objectBoundingBox"><feOffset dy="5" in="SourceAlpha" result="shadowOffsetOuter1"/><feGaussianBlur in="shadowOffsetOuter1" result="shadowBlurOuter1" stdDeviation="5.5"/><feColorMatrix in="shadowBlurOuter1" values="0 0 0 0 0.152941 0 0 0 0 0.180392 0 0 0 0 0.25098 0 0 0 0.2 0"/></filter><linearGradient id="y" x1="35.192%" x2="146.327%" y1="0%" y2="222.965%"><stop offset="0%" stop-color="#392DD1"/><stop offset="100%" stop-color="#FF4343"/></linearGradient><circle id="x" cx="154.591" cy="29.069" r="12"/><filter id="w" width="200%" height="200%" x="-50%" y="-37.5%" filterUnits="objectBoundingBox"><feOffset dy="3" in="SourceAlpha" result="shadowOffsetOuter1"/><feGaussianBlur in="shadowOffsetOuter1" result="shadowBlurOuter1" stdDeviation="3.5"/><feColorMatrix in="shadowBlurOuter1" values="0 0 0 0 0.152941 0 0 0 0 0.180392 0 0 0 0 0.25098 0 0 0 0.2 0"/></filter></defs><g fill="none" fill-rule="evenodd"><g fill-rule="nonzero" transform="translate(10.409 5.931)"><use fill="#000" filter="url(#a)" xlink:href="#b"/><use fill="#FFF" xlink:href="#b"/></g><g fill-rule="nonzero" transform="translate(10.409 5.931)"><use fill="#000" filter="url(#c)" xlink:href="#d"/><use fill="#FFF" xlink:href="#d"/></g><g fill-rule="nonzero" transform="translate(10.409 5.931)"><use fill="#000" filter="url(#e)" xlink:href="#f"/><use fill="url(#g)" xlink:href="#f"/></g><g fill-rule="nonzero" transform="translate(10.409 5.931)"><use fill="#000" filter="url(#h)" xlink:href="#i"/><use fill="#FFF" xlink:href="#i"/></g><g fill-rule="nonzero" transform="translate(10.409 5.931)"><use fill="#000" filter="url(#j)" xlink:href="#k"/><use fill="#FFF" xlink:href="#k"/></g><g transform="translate(10.409 5.931)"><use fill="#000" filter="url(#l)" xlink:href="#m"/><use fill="#FFF" xlink:href="#m"/></g><path fill="#FF4724" d="M63.793 135.2l29.196-16.99 20.129-34.939V49.584c-.531 0-1.062.35-1.465 1.048L87.81 92.019l-23.84 41.388c-.402.698-.44 1.332-.177 1.792"/><path fill="#9E1F63" d="M113.118 49.584V83.27l20.128 34.94 29.196 16.988c.264-.46.226-1.094-.176-1.792l-23.841-41.388-23.843-41.387c-.403-.698-.934-1.048-1.464-1.048"/><path fill="#662D91" d="M162.442 135.2l-29.196-16.99H92.99L63.793 135.2c.263.462.83.749 1.635.749h95.379c.805 0 1.371-.287 1.635-.75"/><path fill="#FFF" d="M92.99 118.21h40.256l-20.128-34.939z"/><g fill-rule="nonzero" transform="translate(10.409 5.931)"><use fill="#000" filter="url(#n)" xlink:href="#o"/><use fill="url(#p)" xlink:href="#o"/></g><g fill-rule="nonzero" transform="translate(10.409 5.931)"><use fill="#000" filter="url(#q)" xlink:href="#r"/><use fill="url(#s)" xlink:href="#r"/></g><g fill-rule="nonzero" transform="translate(10.409 5.931)"><use fill="#000" filter="url(#t)" xlink:href="#u"/><use fill="url(#v)" xlink:href="#u"/></g><g fill-rule="nonzero" transform="translate(10.409 5.931)"><use fill="#000" filter="url(#w)" xlink:href="#x"/><use fill="url(#y)" xlink:href="#x"/></g></g></svg>